<?xml version="1.0" encoding="UTF-8" standalone="no"?>
<!DOCTYPE svg PUBLIC "-//W3C//DTD SVG 1.1//EN" "http://www.w3.org/Graphics/SVG/1.1/DTD/svg11.dtd">
<svg width="100%" height="100%" viewBox="0 0 2363 1182" version="1.1" xmlns="http://www.w3.org/2000/svg" xmlns:xlink="http://www.w3.org/1999/xlink" xml:space="preserve" xmlns:serif="http://www.serif.com/" style="fill-rule:evenodd;clip-rule:evenodd;stroke-linecap:square;stroke-miterlimit:1;">
    <g transform="matrix(1,0,0,1,-26.9461,-1500.4)">
        <g transform="matrix(1.68255,0,0,0.985915,3874.32,38.6024)">
            <g id="Black-and-White" serif:id="Black and White" transform="matrix(0.599534,0,0,1.29708,848.52,1482.9)">
                <g transform="matrix(0.370745,0,0,0.146224,-10702.6,-839.566)">
                    <rect x="14763.5" y="5741.63" width="6316.28" height="6316.28" style="stroke:rgb(78,167,66);stroke-width:1px;"/>
                </g>
                <g id="Black_Logo" transform="matrix(0.418461,0,0,0.318469,-10421.2,-2213.98)">
                    <circle cx="13657.2" cy="8402" r="1022.78"/>
                    <clipPath id="_clip1">
                        <circle cx="13657.2" cy="8402" r="1022.78"/>
                    </clipPath>
                    <g clip-path="url(#_clip1)">
                        <g id="_-Double-Star-" serif:id="(Double Star)" transform="matrix(6.10481,4.93038e-32,0,6.10481,-80057,-40431.4)">
                            <path d="M15350.9,7575.2L15350.9,7913.9L15381.2,7641.61L15350.9,7913.9L15425.4,7583.69L15350.9,7913.9L15440.4,7655.26L15350.9,7913.9L15496.2,7608.74L15350.9,7913.9L15495,7681.89L15350.9,7913.9L15559.7,7649.09L15350.9,7913.9L15542.5,7720.14L15350.9,7913.9L15612.7,7702.72L15350.9,7913.9L15580.3,7768.11L15350.9,7913.9L15652.6,7766.94L15350.9,7913.9L15606.6,7823.4L15350.9,7913.9L15677.4,7838.53L15350.9,7913.9L15620.1,7883.22L15350.9,7913.9L15685.8,7913.9L15350.9,7913.9L15620.1,7944.57L15350.9,7913.9L15677.4,7989.26L15350.9,7913.9L15606.6,8004.39L15350.9,7913.9L15652.6,8060.85L15350.9,7913.9L15580.3,8059.68L15350.9,7913.9L15612.7,8125.07L15350.9,7913.9L15542.5,8107.65L15350.9,7913.9L15559.7,8178.7L15350.9,7913.9L15495,8145.9L15350.9,7913.9L15496.2,8219.05L15350.9,7913.9L15440.4,8172.53L15350.9,7913.9L15425.4,8244.1L15350.9,7913.9L15381.2,8186.18L15350.9,7913.9L15350.9,8252.59L15350.9,7913.9L15320.5,8186.18L15350.9,7913.9L15276.4,8244.1L15350.9,7913.9L15261.4,8172.53L15350.9,7913.9L15205.6,8219.05L15350.9,7913.9L15206.7,8145.9L15350.9,7913.9L15142.1,8178.7L15350.9,7913.9L15159.3,8107.65L15350.9,7913.9L15089.1,8125.07L15350.9,7913.9L15121.5,8059.68L15350.9,7913.9L15049.2,8060.85L15350.9,7913.9L15095.2,8004.39L15350.9,7913.9L15024.4,7989.26L15350.9,7913.9L15081.7,7944.57L15350.9,7913.9L15016,7913.9L15350.9,7913.9L15081.7,7883.22L15350.9,7913.9L15024.4,7838.53L15350.9,7913.9L15095.2,7823.4L15350.9,7913.9L15049.2,7766.94L15350.9,7913.9L15121.5,7768.11L15350.9,7913.9L15089.1,7702.72L15350.9,7913.9L15159.3,7720.14L15350.9,7913.9L15142.1,7649.09L15350.9,7913.9L15206.7,7681.89L15350.9,7913.9L15205.6,7608.74L15350.9,7913.9L15261.4,7655.26L15350.9,7913.9L15276.4,7583.69L15350.9,7913.9L15320.5,7641.61L15350.9,7913.9L15350.9,7575.2Z" style="fill:rgb(0,215,255);stroke:white;stroke-width:2.73px;"/>
                        </g>
                        <g transform="matrix(1,0,0,0.966458,-1847.56,1344.45)">
                            <rect x="15401.8" y="6254.06" width="205.796" height="1559.89" style="fill:white;"/>
                        </g>
                        <g transform="matrix(6.12323e-17,-1,0.584624,3.57979e-17,9544.92,23386.1)">
                            <rect x="15401.8" y="6254.06" width="205.796" height="1559.89" style="fill:white;"/>
                        </g>
                        <g id="Wavelets" transform="matrix(0.14557,0,0,0.201086,7649.06,4074.75)">
                            <path d="M45589,25608C45216.4,25608 44891.5,25523.4 44722,25398.3C44552.6,25523.4 44227.7,25608 43855.1,25608C43497.8,25608 43184.4,25530.2 43009.8,25413.6C42835.2,25530.2 42521.8,25608 42164.6,25608C41774.3,25608 41436.3,25515.2 41274.6,25380.3C41112.8,25515.2 40774.8,25608 40384.5,25608C40026,25608 39711.6,25529.6 39537.4,25412.3C39363.2,25529.6 39048.8,25608 38690.2,25608C38301.5,25608 37964.7,25515.9 37802.1,25381.8C37639.6,25515.9 37302.8,25608 36914,25608" style="fill:none;stroke:white;stroke-width:45.84px;stroke-linecap:round;"/>
                        </g>
                        <g id="Wavelets1" serif:id="Wavelets" transform="matrix(0.14557,0,0,0.201086,7740.21,4181.32)">
                            <path d="M45589,25608C45216.4,25608 44891.5,25523.4 44722,25398.3C44552.6,25523.4 44227.7,25608 43855.1,25608C43497.8,25608 43184.4,25530.2 43009.8,25413.6C42835.2,25530.2 42521.8,25608 42164.6,25608C41774.3,25608 41436.3,25515.2 41274.6,25380.3C41112.8,25515.2 40774.8,25608 40384.5,25608C40026,25608 39711.6,25529.6 39537.4,25412.3C39363.2,25529.6 39048.8,25608 38690.2,25608C38301.5,25608 37964.7,25515.9 37802.1,25381.8C37639.6,25515.9 37302.8,25608 36914,25608" style="fill:none;stroke:white;stroke-width:45.84px;stroke-linecap:round;"/>
                        </g>
                        <g transform="matrix(1.04083e-16,-1.69346,1.31134,8.32667e-17,4507.03,35553.7)">
                            <rect x="15401.8" y="6254.06" width="205.796" height="1559.89"/>
                        </g>
                        <g id="Island_Nodes" transform="matrix(1.10606,0,3.46945e-18,0.810867,-32786.1,-10339.6)">
                            <path d="M41322.3,24002.8L42651.3,24003.7C42651.3,24003.7 42594.7,23906.9 42555.9,23867.3C42502.7,23812.9 42332.3,23677.7 42332.3,23677.7L42210.9,23655.1L42192.6,23650.6L42028.5,23584.1L41988.3,23595.8L41977.2,23598.5L41947.2,23582.6L41847.2,23684.9L41677.3,23760.3L41554.5,23743.4C41554.5,23743.4 41424.8,23828.2 41404.8,23863.6C41371.6,23922.2 41322.3,24002.8 41322.3,24002.8Z" style="fill:white;"/>
                        </g>
                        <g transform="matrix(0.99978,0.0209851,-0.0209851,0.99978,-9509.91,-990.554)">
                            <path d="M23250.3,9309.5L23328.9,9252.53L23374.2,9278.92L23413,9252.53L23467.7,9273.71" style="stroke:black;stroke-width:50px;"/>
                        </g>
                    </g>
                    <circle cx="13657.2" cy="8402" r="1022.78" style="fill:none;stroke:white;stroke-width:41.52px;"/>
                </g>
                <g transform="matrix(1.94755,0,0,1.53625,-22651.2,-454.98)">
                    <g transform="matrix(127.47,0,0,127.47,9506.25,741.623)">
                        <path d="M0.631,0L0.55,-0.188L0.17,-0.188L0.089,0L0.026,0L0.332,-0.705L0.388,-0.705L0.694,0L0.631,0ZM0.193,-0.242L0.527,-0.242L0.36,-0.632L0.193,-0.242Z" style="fill:white;fill-rule:nonzero;"/>
                    </g>
                    <g transform="matrix(127.47,0,0,127.47,9598.03,741.623)">
                        <path d="M0.307,-0.497C0.424,-0.497 0.482,-0.434 0.482,-0.309L0.482,0L0.421,0L0.421,-0.305C0.421,-0.353 0.411,-0.388 0.392,-0.41C0.373,-0.432 0.342,-0.443 0.3,-0.443C0.252,-0.443 0.214,-0.428 0.185,-0.399C0.156,-0.37 0.141,-0.33 0.141,-0.281L0.141,0L0.08,0L0.08,-0.485L0.14,-0.485L0.14,-0.402C0.155,-0.433 0.178,-0.456 0.207,-0.473C0.236,-0.489 0.269,-0.497 0.307,-0.497Z" style="fill:white;fill-rule:nonzero;"/>
                    </g>
                    <g transform="matrix(127.47,0,0,127.47,9669.54,741.623)">
                        <path d="M0.497,-0.485L0.497,-0.028C0.497,0.043 0.48,0.096 0.445,0.133C0.409,0.169 0.358,0.187 0.289,0.187C0.208,0.187 0.138,0.165 0.079,0.12L0.103,0.072C0.136,0.095 0.166,0.111 0.194,0.12C0.221,0.129 0.253,0.133 0.29,0.133C0.339,0.133 0.375,0.12 0.4,0.094C0.425,0.068 0.437,0.029 0.437,-0.022L0.437,-0.117C0.423,-0.084 0.402,-0.059 0.373,-0.042C0.343,-0.024 0.308,-0.015 0.267,-0.015C0.224,-0.015 0.187,-0.025 0.154,-0.045C0.121,-0.065 0.095,-0.093 0.077,-0.13C0.058,-0.167 0.049,-0.209 0.049,-0.256C0.049,-0.303 0.058,-0.345 0.077,-0.382C0.095,-0.419 0.121,-0.447 0.154,-0.467C0.187,-0.487 0.224,-0.497 0.267,-0.497C0.308,-0.497 0.342,-0.489 0.371,-0.472C0.4,-0.455 0.421,-0.43 0.436,-0.397L0.436,-0.485L0.497,-0.485ZM0.275,-0.069C0.326,-0.069 0.365,-0.086 0.394,-0.119C0.422,-0.152 0.436,-0.198 0.436,-0.256C0.436,-0.314 0.422,-0.36 0.393,-0.394C0.364,-0.427 0.325,-0.444 0.275,-0.444C0.224,-0.444 0.185,-0.427 0.156,-0.394C0.127,-0.361 0.113,-0.315 0.113,-0.256C0.113,-0.197 0.127,-0.152 0.156,-0.119C0.185,-0.086 0.224,-0.069 0.275,-0.069Z" style="fill:white;fill-rule:nonzero;"/>
                    </g>
                    <g transform="matrix(127.47,0,0,127.47,9743.09,741.623)">
                        <rect x="0.08" y="-0.705" width="0.061" height="0.705" style="fill:white;fill-rule:nonzero;"/>
                    </g>
                    <g transform="matrix(127.47,0,0,127.47,9771.39,741.623)">
                        <path d="M0.08,0L0.08,-0.485L0.141,-0.485L0.141,0L0.08,0ZM0.071,-0.69L0.151,-0.69L0.151,-0.613L0.071,-0.613L0.071,-0.69Z" style="fill:white;fill-rule:nonzero;"/>
                    </g>
                    <g transform="matrix(127.47,0,0,127.47,9799.68,741.623)">
                        <path d="M0.277,0.007C0.231,0.007 0.191,-0.003 0.157,-0.024C0.122,-0.045 0.096,-0.074 0.077,-0.112C0.058,-0.15 0.049,-0.194 0.049,-0.243C0.049,-0.293 0.058,-0.337 0.078,-0.376C0.096,-0.415 0.123,-0.444 0.158,-0.466C0.193,-0.487 0.233,-0.497 0.28,-0.497C0.313,-0.497 0.344,-0.491 0.375,-0.48C0.405,-0.469 0.429,-0.453 0.448,-0.433L0.425,-0.385C0.4,-0.406 0.377,-0.421 0.354,-0.43C0.331,-0.439 0.307,-0.444 0.282,-0.444C0.23,-0.444 0.189,-0.426 0.159,-0.391C0.128,-0.355 0.113,-0.306 0.113,-0.243C0.113,-0.181 0.128,-0.133 0.158,-0.099C0.188,-0.064 0.229,-0.047 0.281,-0.047C0.306,-0.047 0.329,-0.052 0.353,-0.061C0.376,-0.07 0.4,-0.085 0.425,-0.105L0.448,-0.058C0.428,-0.038 0.403,-0.022 0.372,-0.011C0.341,0.001 0.31,0.007 0.277,0.007Z" style="fill:white;fill-rule:nonzero;"/>
                    </g>
                    <g transform="matrix(127.47,0,0,127.47,9860.23,741.623)">
                        <path d="M0.272,-0.497C0.331,-0.497 0.375,-0.482 0.404,-0.451C0.433,-0.42 0.447,-0.374 0.447,-0.312L0.447,0L0.387,0L0.387,-0.087C0.373,-0.057 0.353,-0.034 0.326,-0.018C0.299,-0.001 0.269,0.007 0.234,0.007C0.203,0.007 0.174,0.001 0.148,-0.012C0.122,-0.025 0.101,-0.042 0.087,-0.065C0.072,-0.088 0.064,-0.113 0.064,-0.14C0.064,-0.176 0.073,-0.204 0.092,-0.224C0.111,-0.244 0.142,-0.258 0.185,-0.267C0.228,-0.276 0.289,-0.28 0.366,-0.28L0.387,-0.28L0.387,-0.317C0.387,-0.361 0.378,-0.393 0.36,-0.414C0.342,-0.434 0.314,-0.444 0.275,-0.444C0.246,-0.444 0.218,-0.44 0.191,-0.432C0.164,-0.423 0.136,-0.41 0.107,-0.391L0.084,-0.438C0.109,-0.456 0.138,-0.47 0.172,-0.481C0.206,-0.492 0.239,-0.497 0.272,-0.497ZM0.239,-0.046C0.282,-0.046 0.318,-0.061 0.346,-0.09C0.373,-0.119 0.387,-0.157 0.387,-0.202L0.387,-0.235L0.368,-0.235C0.304,-0.235 0.255,-0.232 0.221,-0.227C0.187,-0.222 0.163,-0.213 0.149,-0.2C0.135,-0.187 0.128,-0.168 0.128,-0.143C0.128,-0.115 0.139,-0.092 0.16,-0.074C0.181,-0.055 0.208,-0.046 0.239,-0.046Z" style="fill:white;fill-rule:nonzero;"/>
                    </g>
                    <g transform="matrix(127.47,0,0,127.47,9927.28,741.623)">
                        <path d="M0.307,-0.497C0.424,-0.497 0.482,-0.434 0.482,-0.309L0.482,0L0.421,0L0.421,-0.305C0.421,-0.353 0.411,-0.388 0.392,-0.41C0.373,-0.432 0.342,-0.443 0.3,-0.443C0.252,-0.443 0.214,-0.428 0.185,-0.399C0.156,-0.37 0.141,-0.33 0.141,-0.281L0.141,0L0.08,0L0.08,-0.485L0.14,-0.485L0.14,-0.402C0.155,-0.433 0.178,-0.456 0.207,-0.473C0.236,-0.489 0.269,-0.497 0.307,-0.497Z" style="fill:white;fill-rule:nonzero;"/>
                    </g>
                    <g transform="matrix(127.47,0,0,127.47,9998.79,741.623)">
                        <path d="M0.238,0.007C0.161,0.007 0.099,-0.015 0.05,-0.058L0.073,-0.105C0.099,-0.084 0.125,-0.068 0.151,-0.06C0.177,-0.05 0.207,-0.046 0.241,-0.046C0.28,-0.046 0.311,-0.053 0.332,-0.067C0.353,-0.081 0.363,-0.101 0.363,-0.126C0.363,-0.147 0.356,-0.165 0.342,-0.178C0.328,-0.191 0.306,-0.2 0.275,-0.207L0.193,-0.226C0.154,-0.235 0.123,-0.252 0.101,-0.275C0.078,-0.298 0.067,-0.325 0.067,-0.356C0.067,-0.398 0.083,-0.432 0.116,-0.458C0.149,-0.484 0.192,-0.497 0.247,-0.497C0.281,-0.497 0.313,-0.492 0.343,-0.481C0.372,-0.47 0.397,-0.454 0.416,-0.433L0.393,-0.386C0.37,-0.406 0.347,-0.421 0.324,-0.43C0.3,-0.439 0.274,-0.444 0.247,-0.444C0.21,-0.444 0.182,-0.437 0.161,-0.422C0.14,-0.407 0.13,-0.387 0.13,-0.361C0.13,-0.34 0.136,-0.322 0.15,-0.309C0.163,-0.296 0.183,-0.286 0.21,-0.279L0.293,-0.259C0.381,-0.239 0.425,-0.196 0.425,-0.129C0.425,-0.088 0.408,-0.055 0.375,-0.03C0.341,-0.005 0.295,0.007 0.238,0.007Z" style="fill:white;fill-rule:nonzero;"/>
                    </g>
                </g>
                <g transform="matrix(2.86822,0,0,2.26249,-31411.1,-1216.12)">
                    <g transform="matrix(127.47,0,0,127.47,9506.25,741.623)">
                        <path d="M0.719,0L0.532,0L0.226,-0.325L0.226,0L0.07,0L0.07,-0.705L0.226,-0.705L0.226,-0.395L0.522,-0.705L0.706,-0.705L0.378,-0.368L0.719,0Z" style="fill:white;fill-rule:nonzero;"/>
                    </g>
                    <g transform="matrix(127.47,0,0,127.47,9592.67,741.623)">
                        <path d="M0.276,-0.503C0.349,-0.503 0.404,-0.486 0.439,-0.451C0.474,-0.416 0.491,-0.363 0.491,-0.29L0.491,0L0.348,0L0.348,-0.073C0.338,-0.048 0.321,-0.028 0.298,-0.014C0.275,0.001 0.247,0.008 0.216,0.008C0.183,0.008 0.153,0.001 0.126,-0.012C0.098,-0.025 0.077,-0.044 0.062,-0.068C0.046,-0.092 0.038,-0.119 0.038,-0.148C0.038,-0.184 0.047,-0.212 0.066,-0.233C0.084,-0.254 0.113,-0.269 0.154,-0.278C0.195,-0.287 0.25,-0.292 0.321,-0.292L0.347,-0.292L0.347,-0.31C0.347,-0.339 0.341,-0.36 0.328,-0.372C0.315,-0.384 0.293,-0.39 0.262,-0.39C0.238,-0.39 0.211,-0.386 0.182,-0.377C0.153,-0.368 0.125,-0.356 0.098,-0.341L0.058,-0.442C0.086,-0.459 0.121,-0.474 0.162,-0.486C0.203,-0.497 0.241,-0.503 0.276,-0.503ZM0.249,-0.096C0.278,-0.096 0.302,-0.106 0.32,-0.126C0.338,-0.145 0.347,-0.171 0.347,-0.202L0.347,-0.219L0.33,-0.219C0.276,-0.219 0.238,-0.215 0.217,-0.206C0.195,-0.197 0.184,-0.182 0.184,-0.159C0.184,-0.141 0.19,-0.126 0.203,-0.114C0.215,-0.102 0.23,-0.096 0.249,-0.096ZM0.122,-0.609L0.122,-0.703L0.436,-0.703L0.436,-0.609L0.122,-0.609Z" style="fill:white;fill-rule:nonzero;"/>
                    </g>
                    <g transform="matrix(127.47,0,0,127.47,9662.27,741.623)">
                        <path d="M0.362,-0.503C0.404,-0.503 0.442,-0.492 0.475,-0.471C0.507,-0.449 0.533,-0.419 0.552,-0.38C0.57,-0.341 0.579,-0.296 0.579,-0.245C0.579,-0.194 0.57,-0.15 0.552,-0.112C0.533,-0.073 0.508,-0.044 0.475,-0.023C0.442,-0.002 0.405,0.008 0.362,0.008C0.329,0.008 0.299,0.001 0.272,-0.013C0.245,-0.026 0.224,-0.045 0.209,-0.07L0.209,0.18L0.058,0.18L0.058,-0.491L0.207,-0.491L0.207,-0.422C0.222,-0.447 0.243,-0.467 0.27,-0.482C0.297,-0.496 0.328,-0.503 0.362,-0.503ZM0.318,-0.107C0.353,-0.107 0.381,-0.119 0.4,-0.143C0.419,-0.166 0.429,-0.2 0.429,-0.245C0.429,-0.29 0.419,-0.326 0.4,-0.351C0.381,-0.376 0.353,-0.388 0.318,-0.388C0.283,-0.388 0.255,-0.376 0.236,-0.352C0.217,-0.327 0.207,-0.292 0.207,-0.247C0.207,-0.202 0.217,-0.168 0.236,-0.144C0.255,-0.119 0.283,-0.107 0.318,-0.107Z" style="fill:white;fill-rule:nonzero;"/>
                    </g>
                    <g transform="matrix(127.47,0,0,127.47,9740.41,741.623)">
                        <path d="M0.058,0L0.058,-0.491L0.209,-0.491L0.209,0L0.058,0ZM0.053,-0.727L0.215,-0.727L0.215,-0.586L0.053,-0.586L0.053,-0.727Z" style="fill:white;fill-rule:nonzero;"/>
                    </g>
                    <g transform="matrix(127.47,0,0,127.47,9774.44,741.623)">
                        <path d="M0.33,-0.103C0.345,-0.103 0.361,-0.104 0.378,-0.106L0.37,0.004C0.351,0.007 0.331,0.008 0.312,0.008C0.237,0.008 0.183,-0.008 0.149,-0.041C0.114,-0.074 0.097,-0.123 0.097,-0.19L0.097,-0.378L0.004,-0.378L0.004,-0.491L0.097,-0.491L0.097,-0.635L0.248,-0.635L0.248,-0.491L0.371,-0.491L0.371,-0.378L0.248,-0.378L0.248,-0.191C0.248,-0.132 0.275,-0.103 0.33,-0.103Z" style="fill:white;fill-rule:nonzero;"/>
                    </g>
                    <g transform="matrix(127.47,0,0,127.47,9823.78,741.623)">
                        <path d="M0.058,0L0.058,-0.491L0.209,-0.491L0.209,0L0.058,0ZM0.053,-0.727L0.215,-0.727L0.215,-0.586L0.053,-0.586L0.053,-0.727Z" style="fill:white;fill-rule:nonzero;"/>
                    </g>
                </g>
            </g>
        </g>
    </g>
</svg>
